PathFileType	4	(X/Y/Z)	G:\TennisProject\Miami_Dimitrov_Sinner_masked_Sports2D\Miami_Dimitrov_Sinner_masked_Sports2D_m_person03.trc
DataRate	CameraRate	NumFrames	NumMarkers	Units	OrigDataRate	OrigDataStartFrame	OrigNumFrames
25	25	7	22	m	25	374	499
Frame#	Time	Hip			RHip			RKnee			RAnkle			RBigToe			RSmallToe			RHeel			LHip			LKnee			LAnkle			LBigToe			LSmallToe			LHeel			Neck			Head			Nose			RShoulder			RElbow			RWrist			LShoulder			LElbow			LWrist		
		X1	Y1	Z1	X2	Y2	Z2	X3	Y3	Z3	X4	Y4	Z4	X5	Y5	Z5	X6	Y6	Z6	X7	Y7	Z7	X8	Y8	Z8	X9	Y9	Z9	X10	Y10	Z10	X11	Y11	Z11	X12	Y12	Z12	X13	Y13	Z13	X14	Y14	Z14	X15	Y15	Z15	X16	Y16	Z16	X17	Y17	Z17	X18	Y18	Z18	X19	Y19	Z19	X20	Y20	Z20	X21	Y21	Z21	X22	Y22	Z22
374	14.96	9.499216759216063	2.052570999761926	0.0	9.400519572163827	2.0448217687890655	0.0	9.390521607937778	1.6882652288040616	0.0	9.392442535067623	1.3152562103330807	0.0	9.331562049371488	1.229360714228826	0.0	9.301599333939542	1.238988710265365	0.0	9.40908079980204	1.253796598725507	0.0	9.597020678818678	2.043488433917557	0.0	9.651650491174859	1.6948141456259802	0.0	9.696121085758012	1.3203145044057036	0.0	9.720495325377573	1.235936568187962	0.0	9.758456484319737	1.2359957956086745	0.0	9.661507609580367	1.2539840140363896	0.0	9.486541004259506	2.5639916813012773	0.0	9.467302602540885	2.797221085823548	0.0	9.463354843526611	2.6660616689844234	0.0	9.316802880458043	2.478404460960188	0.0	9.298905896543634	2.281125779304849	0.0	9.436628160534044	2.192255677341904	0.0	9.661069752880898	2.4886996763737055	0.0	9.702814327316172	2.275088749892977	0.0	9.588097214173922	2.1764737294312613	0.0
375	15.0	9.499163225438432	2.052788528731174	0.0	9.401225995357322	2.0444994286085993	0.0	9.390085762262649	1.687505618434354	0.0	9.392232256327848	1.3151528580842293	0.0	9.337582366028146	1.2311710215194425	0.0	9.30625828443589	1.2400529362249926	0.0	9.41042993517621	1.254062658415873	0.0	9.59708947729921	2.0432957640067198	0.0	9.65129233683963	1.6944473741100534	0.0	9.695183539137133	1.3216279862819875	0.0	9.720769683040851	1.2408317912032543	0.0	9.757473272951872	1.2426191275747736	0.0	9.666422452649222	1.2585726020474877	0.0	9.485265394671709	2.5641705528151455	0.0	9.468829463445116	2.7955104509143878	0.0	9.465042283999244	2.664648415173893	0.0	9.318636119912387	2.4788508139056065	0.0	9.299533832635925	2.2788186060409608	0.0	9.439273449041918	2.1953634167219955	0.0	9.660132253109923	2.489509743440764	0.0	9.701150725734232	2.2748444015584264	0.0	9.579638530588939	2.181246549864631	0.0
376	15.040000000000001	9.499408485728518	2.054065700541503	0.0	9.40093999825477	2.0449280907477627	0.0	9.388305160243258	1.6875287919244035	0.0	9.39048103725345	1.3149207395208478	0.0	9.33987879395338	1.2344218898834023	0.0	9.308980290731572	1.2413989448940097	0.0	9.41149497109735	1.2548521817821896	0.0	9.597480893850834	2.0444312618745695	0.0	9.64942184043083	1.6939895781703347	0.0	9.694946858056884	1.321360094314907	0.0	9.721188581413289	1.2439090910430148	0.0	9.757010830541354	1.2489624377962782	0.0	9.667991182843657	1.2621296112266323	0.0	9.484425401707814	2.5651086807225756	0.0	9.470297433219104	2.793495861303466	0.0	9.466453996980672	2.6639259495703995	0.0	9.31971804604434	2.478566852385269	0.0	9.299052415848857	2.2780967969928203	0.0	9.439947472445468	2.1953552040664777	0.0	9.65912184688997	2.4915555837233505	0.0	9.698743775167197	2.2747980212796755	0.0	9.571820310386011	2.182549281692908	0.0
377	15.08	9.498893529034184	2.0544488119611506	0.0	9.399083728737489	2.0447954995964803	0.0	9.386606533527761	1.6886824496204327	0.0	9.388737944642246	1.3159280250175078	0.0	9.334762122606737	1.2346225861597235	0.0	9.304283704372438	1.2396118162311973	0.0	9.410350551639931	1.2552683238894444	0.0	9.59797574554795	2.0451396705387586	0.0	9.647691231718374	1.6935000205009056	0.0	9.697476746272772	1.320775549723423	0.0	9.722482003365803	1.23824162777713	0.0	9.759422109399958	1.243969064676821	0.0	9.665844963377483	1.2582069603788517	0.0	9.484735858689573	2.5656625040241154	0.0	9.470123331832221	2.7954649709310573	0.0	9.466211145118727	2.6669015984796345	0.0	9.31680546570796	2.480064654384516	0.0	9.296579606562224	2.281314521499213	0.0	9.438678692132106	2.192719065395884	0.0	9.660397136490134	2.4928610573540873	0.0	9.697897931820107	2.2769560383102037	0.0	9.579144536318914	2.177519475605758	0.0
378	15.120000000000001	9.497842687072803	2.053886252271477	0.0	9.397606186953457	2.0437892059970313	0.0	9.385223159703715	1.6880699189284136	0.0	9.387353137045963	1.3170729356736701	0.0	9.331667155632099	1.2328834423271877	0.0	9.299712534454613	1.2385480923002246	0.0	9.406871743223508	1.2568473636424995	0.0	9.597931310878574	2.0434121250084036	0.0	9.647549859578119	1.6918650143134646	0.0	9.69868694216917	1.3201202177680258	0.0	9.723984855981417	1.2339661593242253	0.0	9.761210496586568	1.2393327222638821	0.0	9.666689468925872	1.255188135199931	0.0	9.48385275830367	2.5650862248058037	0.0	9.468289439049796	2.79700839749196	0.0	9.465744462920483	2.6683899138832388	0.0	9.312993549163771	2.481405584260419	0.0	9.294966241362172	2.2823878891509546	0.0	9.439900185840898	2.193931991781767	0.0	9.661759484058843	2.4922324105631035	0.0	9.697699348746252	2.2788711340261756	0.0	9.586666933959792	2.1759497481105865	0.0
379	15.16	9.496816983240592	2.054241940204205	0.0	9.397639657332114	2.043456220403576	0.0	9.383662032803903	1.686105893378523	0.0	9.385846811763237	1.3161541190099648	0.0	9.336923573554694	1.232028229632104	0.0	9.303306760308963	1.2408859702398418	0.0	9.404460778016054	1.2585796765185342	0.0	9.59624675789865	2.0413200315460975	0.0	9.647809790913652	1.6898121269047417	0.0	9.69571465658997	1.3189427956552375	0.0	9.723762304952706	1.2380778043910596	0.0	9.759267406082028	1.2449326254093422	0.0	9.671298734439471	1.2592696435034234	0.0	9.481719479317885	2.5640811524305964	0.0	9.466669834434008	2.7946708605621917	0.0	9.466319758672158	2.6650072996783036	0.0	9.312506464604093	2.4796672188894715	0.0	9.295727294311721	2.2791655131739548	0.0	9.442923579347262	2.1999782875979808	0.0	9.660521158519963	2.4905976993234336	0.0	9.697430340338672	2.2779222368727066	0.0	9.578945024407693	2.182214913402662	0.0
380	15.200000000000001	9.495878673725494	2.054994032997031	0.0	9.397631397818014	2.043664447539869	0.0	9.382891956264055	1.6859590661508121	0.0	9.385009161443568	1.3152193137892447	0.0	9.343581036123412	1.2313369952290807	0.0	9.309152121676787	1.241986699612207	0.0	9.404633814676496	1.2582709194135129	0.0	9.59432525545532	2.041814978093128	0.0	9.64689630071501	1.6891493195174951	0.0	9.692264242753932	1.3184123016291842	0.0	9.723072011700099	1.241051247967371	0.0	9.756126419672366	1.2491815362502803	0.0	9.673947790254594	1.2624102030626425	0.0	9.481098155791065	2.563722944768161	0.0	9.46678306899859	2.7927507579524202	0.0	9.466431424601609	2.6619628405976634	0.0	9.313171774604385	2.478416606118962	0.0	9.296280798948994	2.277776666198415	0.0	9.442831460955578	2.203877777448785	0.0	9.659392244870567	2.489802633192477	0.0	9.697951832190311	2.276395546943267	0.0	9.570334565923373	2.1869456924413972	0.0
